<?xml version="1.0" encoding="UTF-8" standalone="no"?>
<!DOCTYPE svg PUBLIC "-//W3C//DTD SVG 1.1//EN"
 "http://www.w3.org/Graphics/SVG/1.1/DTD/svg11.dtd">
<!-- Generated by graphviz version 2.38.0 (20140413.2041)
 -->
<!-- Title: G Pages: 1 -->
<svg width="266pt" height="96pt"
 viewBox="0.00 0.00 266.29 96.00" xmlns="http://www.w3.org/2000/svg" xmlns:xlink="http://www.w3.org/1999/xlink">
<g id="graph0" class="graph" transform="scale(1 1) rotate(0) translate(4 92)">
<title>G</title>
<polygon fill="white" stroke="none" points="-4,4 -4,-92 262.293,-92 262.293,4 -4,4"/>
<g id="clust1" class="cluster"><title>cluster_Global</title>
<path fill="none" stroke="gray" d="M155.293,-8C155.293,-8 238.293,-8 238.293,-8 244.293,-8 250.293,-14 250.293,-20 250.293,-20 250.293,-68 250.293,-68 250.293,-74 244.293,-80 238.293,-80 238.293,-80 155.293,-80 155.293,-80 149.293,-80 143.293,-74 143.293,-68 143.293,-68 143.293,-20 143.293,-20 143.293,-14 149.293,-8 155.293,-8"/>
<text text-anchor="middle" x="196.793" y="-67.2" font-family="Times New Roman,serif" font-size="11.00" fill="gray">Global</text>
</g>
<!-- \\OPML_Parser -->
<g id="node1" class="node"><title>\\OPML_Parser</title>
<polygon fill="none" stroke="black" points="242.293,-52 151.293,-52 151.293,-16 242.293,-16 242.293,-52"/>
<text text-anchor="middle" x="196.793" y="-31.2" font-family="Courier,monospace" font-size="11.00">OPML_Parser</text>
</g>
<!-- \\Iterator -->
<g id="node2" class="node"><title>\\Iterator</title>
<ellipse fill="none" stroke="black" cx="39.6465" cy="-34" rx="39.7935" ry="18"/>
<text text-anchor="middle" x="39.6465" y="-30.3" font-family="Times New Roman,serif" font-size="14.00" fill="gray">\Iterator</text>
</g>
<!-- \\OPML_Parser&#45;&gt;\\Iterator -->
<g id="edge1" class="edge"><title>\\OPML_Parser&#45;&gt;\\Iterator</title>
<path fill="none" stroke="black" stroke-dasharray="1,5" d="M150.918,-34C131.726,-34 109.265,-34 89.6403,-34"/>
<polygon fill="none" stroke="black" points="89.3698,-30.5001 79.3697,-34 89.3697,-37.5001 89.3698,-30.5001"/>
</g>
</g>
</svg>
