<?xml version="1.0" encoding="UTF-8" standalone="no"?>
<!DOCTYPE svg PUBLIC "-//W3C//DTD SVG 1.1//EN"
 "http://www.w3.org/Graphics/SVG/1.1/DTD/svg11.dtd">
<!-- Generated by graphviz version 2.38.0 (20140413.2041)
 -->
<!-- Title: G Pages: 1 -->
<svg width="282pt" height="168pt"
 viewBox="0.00 0.00 282.29 168.00" xmlns="http://www.w3.org/2000/svg" xmlns:xlink="http://www.w3.org/1999/xlink">
<g id="graph0" class="graph" transform="scale(1 1) rotate(0) translate(4 164)">
<title>G</title>
<polygon fill="white" stroke="none" points="-4,4 -4,-164 278.293,-164 278.293,4 -4,4"/>
<g id="clust1" class="cluster"><title>cluster_Global</title>
<path fill="none" stroke="gray" d="M139.293,-8C139.293,-8 254.293,-8 254.293,-8 260.293,-8 266.293,-14 266.293,-20 266.293,-20 266.293,-140 266.293,-140 266.293,-146 260.293,-152 254.293,-152 254.293,-152 139.293,-152 139.293,-152 133.293,-152 127.293,-146 127.293,-140 127.293,-140 127.293,-20 127.293,-20 127.293,-14 133.293,-8 139.293,-8"/>
<text text-anchor="middle" x="196.793" y="-139.2" font-family="Times New Roman,serif" font-size="11.00" fill="gray">Global</text>
</g>
<g id="clust2" class="cluster"><title>cluster_\imelgrat</title>
<path fill="none" stroke="gray" d="M147.293,-16C147.293,-16 246.293,-16 246.293,-16 252.293,-16 258.293,-22 258.293,-28 258.293,-28 258.293,-112 258.293,-112 258.293,-118 252.293,-124 246.293,-124 246.293,-124 147.293,-124 147.293,-124 141.293,-124 135.293,-118 135.293,-112 135.293,-112 135.293,-28 135.293,-28 135.293,-22 141.293,-16 147.293,-16"/>
<text text-anchor="middle" x="196.793" y="-111.2" font-family="Times New Roman,serif" font-size="11.00" fill="gray">imelgrat</text>
</g>
<g id="clust3" class="cluster"><title>cluster_\imelgrat\OPML_Parser</title>
<path fill="none" stroke="gray" d="M155.293,-24C155.293,-24 238.293,-24 238.293,-24 244.293,-24 250.293,-30 250.293,-36 250.293,-36 250.293,-84 250.293,-84 250.293,-90 244.293,-96 238.293,-96 238.293,-96 155.293,-96 155.293,-96 149.293,-96 143.293,-90 143.293,-84 143.293,-84 143.293,-36 143.293,-36 143.293,-30 149.293,-24 155.293,-24"/>
<text text-anchor="middle" x="196.793" y="-83.2" font-family="Times New Roman,serif" font-size="11.00" fill="gray">OPML_Parser</text>
</g>
<!-- \\imelgrat\\OPML_Parser\\OPML_Parser -->
<g id="node1" class="node"><title>\\imelgrat\\OPML_Parser\\OPML_Parser</title>
<polygon fill="none" stroke="black" points="242.293,-68 151.293,-68 151.293,-32 242.293,-32 242.293,-68"/>
<text text-anchor="middle" x="196.793" y="-47.2" font-family="Courier,monospace" font-size="11.00">OPML_Parser</text>
</g>
<!-- \\Iterator -->
<g id="node2" class="node"><title>\\Iterator</title>
<ellipse fill="none" stroke="black" cx="39.6465" cy="-50" rx="39.7935" ry="18"/>
<text text-anchor="middle" x="39.6465" y="-46.3" font-family="Times New Roman,serif" font-size="14.00" fill="gray">\Iterator</text>
</g>
<!-- \\imelgrat\\OPML_Parser\\OPML_Parser&#45;&gt;\\Iterator -->
<g id="edge1" class="edge"><title>\\imelgrat\\OPML_Parser\\OPML_Parser&#45;&gt;\\Iterator</title>
<path fill="none" stroke="black" stroke-dasharray="1,5" d="M150.918,-50C131.726,-50 109.265,-50 89.6403,-50"/>
<polygon fill="none" stroke="black" points="89.3698,-46.5001 79.3697,-50 89.3697,-53.5001 89.3698,-46.5001"/>
</g>
</g>
</svg>
